<svg width="54" height="58" viewBox="0 0 54 58" fill="none" xmlns="http://www.w3.org/2000/svg">
<path d="M30.375 47.125C30.375 51.1306 26.595 54.375 21.9375 54.375C17.28 54.375 13.5 51.1306 13.5 47.125C13.5 43.1194 17.28 39.875 21.9375 39.875C26.595 39.875 30.375 43.1194 30.375 47.125Z" fill="#FFC769"/>
<path fill-rule="evenodd" clip-rule="evenodd" d="M30.375 10.875V47.125H27V10.875H30.375Z" fill="#FFC769"/>
<path d="M27 10.2225C27.0005 9.38478 27.2711 8.5731 27.7657 7.92546C28.2604 7.27782 28.9487 6.83418 29.7135 6.66999L39.8385 4.49499C40.328 4.38992 40.833 4.40275 41.3173 4.53257C41.8016 4.6624 42.253 4.90598 42.6391 5.24576C43.0252 5.58554 43.3363 6.01308 43.55 6.49755C43.7637 6.98203 43.8747 7.51139 43.875 8.04749V14.5L27 18.125V10.2225Z" fill="#FFC769"/>
</svg>
